<svg width="312" height="312" viewBox="0 0 312 312" fill="none" xmlns="http://www.w3.org/2000/svg">
<g id="9b64510f-ffc3-4412-a5c8-27b8a29f0c14 1" clip-path="url(#clip0_1_3)">
<g id="Clip path group">
<mask id="mask0_1_3" style="mask-type:luminance" maskUnits="userSpaceOnUse" x="0" y="0" width="312" height="312">
<g id="__lottie_element_2">
<path id="Vector" d="M312 0H0V312H312V0Z" fill="white"/>
</g>
</mask>
<g mask="url(#mask0_1_3)">
<g id="right-wheel">
<path id="Vector_2" d="M264.952 212.112C254.297 202.719 238.043 203.742 228.649 214.399C219.255 225.055 220.28 241.309 230.935 250.701C241.591 260.095 257.845 259.072 267.239 248.416" stroke="#E91D34" stroke-width="9.646" stroke-linecap="round" stroke-linejoin="round"/>
</g>
<g id="Group">
<g id="Group 1">
<g id="Group_2">
<g id="Group_3">
<path id="Vector_3" d="M184.813 210.851H198.697C201.132 210.851 203.104 208.936 203.104 206.571V206.246C203.104 203.879 201.132 201.965 198.697 201.965H190.872L198.354 176.535C199.184 173.703 197 170.887 193.955 170.887H85.0838C82.6468 170.887 80.6758 172.802 80.6758 175.167V175.492C80.6758 177.85 82.6468 179.773 85.0838 179.773H99.1648C90.7768 186.368 85.4178 195.747 84.1468 206.09C83.8428 208.625 85.9048 210.851 88.5308 210.851H88.9418C91.1578 210.851 92.9688 209.218 93.2348 207.081C95.1308 191.831 108.391 179.973 124.588 179.773H125.418C141.631 179.973 154.876 191.823 156.771 207.074C157.037 209.209 158.849 210.851 161.072 210.851H161.475C164.109 210.851 166.171 208.625 165.86 206.09C164.588 195.778 159.199 186.323 150.849 179.773H187.895L180.42 205.196C179.584 208.027 181.776 210.851 184.813 210.851Z" fill="#E91D34"/>
</g>
<g id="Group_4">
<path id="Vector_4" d="M79.1308 122.051H133.418L125.509 156.627C124.878 159.391 127.04 162.015 129.955 162.015H166.529V161.868C168.424 161.387 169.818 159.724 169.818 157.735V157.41C169.818 155.051 167.846 153.13 165.411 153.13H135.633L143.542 118.554C144.173 115.797 142.012 113.173 139.096 113.173H79.1308C76.6948 113.173 74.7238 115.087 74.7238 117.453V117.771C74.7238 120.136 76.6948 122.051 79.1308 122.051Z" fill="#E91D34"/>
</g>
<g id="Group_5">
<path id="Vector_5" d="M168.304 118.91H168.28C165.608 121.505 164.269 124.92 164.269 128.328C164.269 131.736 165.608 135.151 168.28 137.746L192.478 161.247L213.349 161.24C215.784 161.24 217.756 159.326 217.756 156.959V156.634C217.756 154.269 215.784 152.354 213.349 152.354L196.269 152.362L174.75 131.463C173.86 130.598 173.411 129.459 173.411 128.328C173.411 127.197 173.86 126.051 174.75 125.186L174.743 125.179C175.634 124.321 176.806 123.885 177.986 123.885C179.165 123.885 180.33 124.321 181.221 125.186L200.844 144.244H220.277C219.287 146.263 218.739 148.525 218.739 150.905C218.739 155.201 220.535 159.081 223.428 161.891C224.09 162.541 224.821 163.132 225.597 163.658V179.928C225.597 182.294 227.569 184.208 230.004 184.208H230.338C232.774 184.208 234.746 182.294 234.746 179.928V157.566H234.655C232.797 157.543 231.116 156.797 229.898 155.607C228.658 154.402 227.888 152.739 227.888 150.898C227.888 149.057 228.658 147.393 229.898 146.189C231.116 144.998 232.797 144.259 234.655 144.237H234.746C236.642 144.237 238.355 144.984 239.595 146.189C240.212 146.787 240.722 147.505 241.065 148.303C241.765 149.907 243.469 150.89 245.265 150.89H245.479C248.585 150.89 250.746 147.837 249.582 145.043C248.768 143.106 247.565 141.354 246.066 139.905C243.173 137.096 239.169 135.351 234.754 135.351H204.65L187.698 118.888C185.018 116.293 181.509 114.992 178 114.992C174.506 114.992 170.998 116.293 168.319 118.888L168.304 118.91Z" fill="#E91D34"/>
</g>
<g id="Group_6">
<path id="Vector_6" d="M161.947 106.534C164.444 106.534 166.476 104.568 166.476 102.136C166.476 99.7032 164.452 97.7442 161.947 97.7442C157.35 97.7442 153.079 95.9482 149.936 92.6952C146.792 89.4422 145.209 85.1842 145.498 80.7042C146.001 72.8092 152.76 66.2372 160.889 65.7492C168.653 65.2612 175.717 70.2292 177.81 77.3332H171.371C168.874 77.3332 166.842 79.3002 166.842 81.7322C166.842 84.1642 168.866 86.1312 171.371 86.1312H180.216C182.27 86.1312 184.234 85.2652 185.582 83.7582C186.922 82.2642 187.53 80.2832 187.257 78.3392C185.452 65.5572 173.562 56.1832 160.334 56.9812C147.523 57.7502 137.262 67.7232 136.463 80.1652C136.022 87.0922 138.465 93.6792 143.344 98.7202C148.147 103.696 154.937 106.541 161.955 106.541L161.947 106.534Z" fill="#E91D34"/>
</g>
<g id="Group_7">
<path id="Vector_7" d="M96.5418 234.356C96.5418 248.566 108.063 260.085 122.271 260.085C136.48 260.085 148 248.566 148 234.356" stroke="#E91D34" stroke-width="9.648" stroke-linecap="round"/>
</g>
<g id="Group_8">
<path id="Vector_8" d="M247.765 191.555C226.452 191.555 209.171 208.833 209.171 230.149H76.3568" stroke="#E91D34" stroke-width="9.648" stroke-linecap="round"/>
</g>
<g id="Group_9">
<path id="Vector_9" d="M286.173 231.222C286.173 216.021 277.384 202.872 264.611 196.58" stroke="#E91D34" stroke-width="9.648" stroke-linecap="round"/>
</g>
<g id="Group_10">
<path id="Vector_10" d="M247.765 182.08V231.222" stroke="#E91D34" stroke-width="9.648" stroke-linecap="round"/>
</g>
</g>
<g id="Group_11">
<g id="Group_12">
<path id="Vector_11" d="M35.914 231.033C35.914 232.176 34.8844 233.104 33.6162 233.104H24.5273C23.2592 233.104 22.2296 232.176 22.2296 231.033C22.2296 229.89 23.2592 228.961 24.5273 228.961H33.6162C34.8844 228.961 35.914 229.89 35.914 231.033Z" fill="#E91D34"/>
</g>
</g>
</g>
</g>
<g id="left">
<g id="Group_13">
<path id="Vector_12" d="M96.9303 279.827C96.9303 281.541 95.5385 282.932 93.8243 282.932H-43.288C-45.0022 282.932 -46.394 281.541 -46.394 279.827C-46.394 278.112 -45.0022 276.721 -43.288 276.721H93.8243C95.5385 276.721 96.9303 278.112 96.9303 279.827Z" fill="#E91D34"/>
</g>
</g>
<g id="mid">
<g id="Group_14">
<path id="Vector_13" d="M267.93 279.827C267.93 281.541 266.539 282.932 264.824 282.932H127.712C125.998 282.932 124.606 281.541 124.606 279.827C124.606 278.112 125.998 276.721 127.712 276.721H264.824C266.539 276.721 267.93 278.112 267.93 279.827Z" fill="#E91D34"/>
</g>
</g>
<g id="right">
<g id="Group_15">
<path id="Vector_14" d="M441.93 279.827C441.93 281.541 440.538 282.932 438.824 282.932H301.712C299.998 282.932 298.606 281.541 298.606 279.827C298.606 278.112 299.998 276.721 301.712 276.721H438.824C440.538 276.721 441.93 278.112 441.93 279.827Z" fill="#E91D34"/>
</g>
</g>
</g>
</g>
</g>
<defs>
<clipPath id="clip0_1_3">
<rect width="312" height="312" fill="white"/>
</clipPath>
</defs>
</svg>
